<svg xmlns="http://www.w3.org/2000/svg" xmlns:xlink="http://www.w3.org/1999/xlink" width="1122" zoomAndPan="magnify" viewBox="0 0 841.92 595.499987" height="793" preserveAspectRatio="xMidYMid meet" version="1.0"><defs><filter x="0%" y="0%" width="100%" height="100%" id="3080b87bae"><feColorMatrix values="0 0 0 0 1 0 0 0 0 1 0 0 0 0 1 0 0 0 1 0" color-interpolation-filters="sRGB"/></filter><mask id="8e6b9160d1"><g filter="url(#3080b87bae)"><rect x="-84.192" width="1010.304" fill="#000000" y="-59.549999" height="714.599985" fill-opacity="0.23"/></g></mask><clipPath id="c7b09ccd7c"><path d="M 1.445312 1.390625 L 368.636719 1.390625 L 368.636719 368.582031 L 1.445312 368.582031 Z M 1.445312 1.390625 " clip-rule="nonzero"/></clipPath><clipPath id="3e0d7a2d33"><rect x="0" width="370" y="0" height="370"/></clipPath><mask id="b09a831fec"><g filter="url(#3080b87bae)"><rect x="-84.192" width="1010.304" fill="#000000" y="-59.549999" height="714.599985" fill-opacity="0.23"/></g></mask><clipPath id="76e411a209"><path d="M 0.894531 0.84375 L 338.863281 0.84375 L 338.863281 338.808594 L 0.894531 338.808594 Z M 0.894531 0.84375 " clip-rule="nonzero"/></clipPath><clipPath id="b38689c841"><rect x="0" width="339" y="0" height="340"/></clipPath><mask id="2020f5cc99"><g filter="url(#3080b87bae)"><rect x="-84.192" width="1010.304" fill="#000000" y="-59.549999" height="714.599985" fill-opacity="0.23"/></g></mask><clipPath id="79befb4e57"><path d="M 1.15625 1.101562 L 258.941406 1.101562 L 258.941406 258.886719 L 1.15625 258.886719 Z M 1.15625 1.101562 " clip-rule="nonzero"/></clipPath><clipPath id="601d1f0557"><rect x="0" width="260" y="0" height="260"/></clipPath><mask id="dd55d7d694"><g filter="url(#3080b87bae)"><rect x="-84.192" width="1010.304" fill="#000000" y="-59.549999" height="714.599985" fill-opacity="0.23"/></g></mask><clipPath id="9a2aa870c7"><path d="M 4.734375 47 L 106 47 L 106 189.589844 L 4.734375 189.589844 Z M 4.734375 47 " clip-rule="nonzero"/></clipPath><clipPath id="b3e33cad75"><path d="M 100 109 L 111 109 L 111 189.589844 L 100 189.589844 Z M 100 109 " clip-rule="nonzero"/></clipPath><clipPath id="949dea08ff"><path d="M 109 113 L 116 113 L 116 189.589844 L 109 189.589844 Z M 109 113 " clip-rule="nonzero"/></clipPath><clipPath id="37513ec581"><path d="M 116 118 L 121 118 L 121 189.589844 L 116 189.589844 Z M 116 118 " clip-rule="nonzero"/></clipPath><clipPath id="dc8f15938a"><path d="M 122 121 L 127 121 L 127 189.589844 L 122 189.589844 Z M 122 121 " clip-rule="nonzero"/></clipPath><clipPath id="913f25e434"><path d="M 97 4.496094 L 176 4.496094 L 176 189.589844 L 97 189.589844 Z M 97 4.496094 " clip-rule="nonzero"/></clipPath><clipPath id="10269b7d64"><path d="M 156 123 L 184 123 L 184 189.589844 L 156 189.589844 Z M 156 123 " clip-rule="nonzero"/></clipPath><clipPath id="6db8117e4c"><path d="M 163 127 L 191 127 L 191 189.589844 L 163 189.589844 Z M 163 127 " clip-rule="nonzero"/></clipPath><clipPath id="54a3977afb"><path d="M 169 130 L 199 130 L 199 189.589844 L 169 189.589844 Z M 169 130 " clip-rule="nonzero"/></clipPath><clipPath id="fc16ceb8bc"><path d="M 174 133 L 204 133 L 204 189.589844 L 174 189.589844 Z M 174 133 " clip-rule="nonzero"/></clipPath><clipPath id="0a580c4071"><path d="M 180 135 L 209 135 L 209 189.589844 L 180 189.589844 Z M 180 135 " clip-rule="nonzero"/></clipPath><clipPath id="583fa830d0"><path d="M 185 136 L 213 136 L 213 189.589844 L 185 189.589844 Z M 185 136 " clip-rule="nonzero"/></clipPath><clipPath id="ef9b960dbb"><path d="M 184 55 L 240.421875 55 L 240.421875 189.589844 L 184 189.589844 Z M 184 55 " clip-rule="nonzero"/></clipPath><clipPath id="abfa72f984"><rect x="0" width="241" y="0" height="209"/></clipPath><mask id="9e8aee0627"><g filter="url(#3080b87bae)"><rect x="-84.192" width="1010.304" fill="#000000" y="-59.549999" height="714.599985" fill-opacity="0.63"/></g></mask><clipPath id="aa0ed1d50b"><path d="M 5 3 L 119 3 L 119 76 L 5 76 Z M 5 3 " clip-rule="nonzero"/></clipPath><clipPath id="6e16306b11"><path d="M 0.0117188 4.035156 L 131.863281 0.871094 L 134.089844 93.765625 L 2.238281 96.929688 Z M 0.0117188 4.035156 " clip-rule="nonzero"/></clipPath><clipPath id="f4c3c62b1b"><path d="M 0.0117188 4.035156 L 131.863281 0.871094 L 134.089844 93.765625 L 2.238281 96.929688 Z M 0.0117188 4.035156 " clip-rule="nonzero"/></clipPath><clipPath id="139f2775a0"><path d="M 2 42 L 55 42 L 55 95 L 2 95 Z M 2 42 " clip-rule="nonzero"/></clipPath><clipPath id="25cc89ec9d"><path d="M 0.0117188 4.035156 L 131.863281 0.871094 L 134.089844 93.765625 L 2.238281 96.929688 Z M 0.0117188 4.035156 " clip-rule="nonzero"/></clipPath><clipPath id="17c6edc20a"><path d="M 0.0117188 4.035156 L 131.863281 0.871094 L 134.089844 93.765625 L 2.238281 96.929688 Z M 0.0117188 4.035156 " clip-rule="nonzero"/></clipPath><clipPath id="9acca18ee2"><path d="M 91 52 L 134 52 L 134 95 L 91 95 Z M 91 52 " clip-rule="nonzero"/></clipPath><clipPath id="99bd5ecc80"><path d="M 0.0117188 4.035156 L 131.863281 0.871094 L 134.089844 93.765625 L 2.238281 96.929688 Z M 0.0117188 4.035156 " clip-rule="nonzero"/></clipPath><clipPath id="4e98e8329d"><path d="M 0.0117188 4.035156 L 131.863281 0.871094 L 134.089844 93.765625 L 2.238281 96.929688 Z M 0.0117188 4.035156 " clip-rule="nonzero"/></clipPath><clipPath id="b0e6fdb7d9"><path d="M 17 57 L 39 57 L 39 79 L 17 79 Z M 17 57 " clip-rule="nonzero"/></clipPath><clipPath id="587b4ff42b"><path d="M 0.0117188 4.035156 L 131.863281 0.871094 L 134.089844 93.765625 L 2.238281 96.929688 Z M 0.0117188 4.035156 " clip-rule="nonzero"/></clipPath><clipPath id="c5c6cf11d6"><path d="M 0.0117188 4.035156 L 131.863281 0.871094 L 134.089844 93.765625 L 2.238281 96.929688 Z M 0.0117188 4.035156 " clip-rule="nonzero"/></clipPath><clipPath id="940a965e29"><path d="M 104 65 L 121 65 L 121 82 L 104 82 Z M 104 65 " clip-rule="nonzero"/></clipPath><clipPath id="f38e77e4cd"><path d="M 0.0117188 4.035156 L 131.863281 0.871094 L 134.089844 93.765625 L 2.238281 96.929688 Z M 0.0117188 4.035156 " clip-rule="nonzero"/></clipPath><clipPath id="d04a416939"><path d="M 0.0117188 4.035156 L 131.863281 0.871094 L 134.089844 93.765625 L 2.238281 96.929688 Z M 0.0117188 4.035156 " clip-rule="nonzero"/></clipPath><clipPath id="e1fc9979e1"><rect x="0" width="135" y="0" height="98"/></clipPath></defs><g mask="url(#8e6b9160d1)"><g transform="matrix(1, 0, 0, 1, 236, 69)"><g clip-path="url(#3e0d7a2d33)"><g clip-path="url(#c7b09ccd7c)"><path fill="#a1d569" d="M 184.929688 359.660156 C 88.5 359.660156 10.054688 281.207031 10.054688 184.777344 C 10.054688 88.347656 88.5 9.90625 184.929688 9.90625 C 281.359375 9.90625 359.8125 88.347656 359.8125 184.777344 C 359.8125 281.207031 281.359375 359.660156 184.929688 359.660156 Z M 184.929688 1.347656 C 83.789062 1.347656 1.5 83.636719 1.5 184.777344 C 1.5 285.921875 83.789062 368.210938 184.929688 368.210938 C 286.074219 368.210938 368.359375 285.921875 368.359375 184.777344 C 368.359375 83.636719 286.074219 1.347656 184.929688 1.347656 " fill-opacity="1" fill-rule="nonzero"/></g><path fill="#a1d569" d="M 184.929688 7.460938 C 87.160156 7.460938 7.621094 87.007812 7.621094 184.777344 C 7.621094 282.550781 87.160156 362.097656 184.929688 362.097656 C 282.703125 362.097656 362.25 282.550781 362.25 184.777344 C 362.25 87.007812 282.703125 7.460938 184.929688 7.460938 Z M 184.929688 365.773438 C 85.136719 365.773438 3.9375 284.578125 3.9375 184.777344 C 3.9375 84.976562 85.136719 3.785156 184.929688 3.785156 C 284.730469 3.785156 365.925781 84.976562 365.925781 184.777344 C 365.925781 284.578125 284.730469 365.773438 184.929688 365.773438 " fill-opacity="1" fill-rule="nonzero"/></g></g></g><g mask="url(#b09a831fec)"><g transform="matrix(1, 0, 0, 1, 251, 84)"><g clip-path="url(#b38689c841)"><g clip-path="url(#76e411a209)"><path fill="#a1d569" d="M 169.902344 0.84375 C 76.527344 0.84375 0.894531 76.472656 0.894531 169.847656 C 0.894531 263.222656 76.527344 338.855469 169.902344 338.855469 C 263.277344 338.855469 338.910156 263.222656 338.910156 169.847656 C 338.910156 76.472656 263.277344 0.84375 169.902344 0.84375 Z M 169.902344 305.054688 C 95.371094 305.054688 34.695312 244.378906 34.695312 169.847656 C 34.695312 95.316406 95.371094 34.644531 169.902344 34.644531 C 244.433594 34.644531 305.105469 95.316406 305.105469 169.847656 C 305.105469 244.378906 244.433594 305.054688 169.902344 305.054688 Z M 169.902344 305.054688 " fill-opacity="1" fill-rule="nonzero"/></g></g></g></g><g mask="url(#2020f5cc99)"><g transform="matrix(1, 0, 0, 1, 291, 124)"><g clip-path="url(#601d1f0557)"><g clip-path="url(#79befb4e57)"><path fill="#a1d569" d="M 129.921875 252.527344 C 62.25 252.527344 7.199219 197.472656 7.199219 129.800781 C 7.199219 62.128906 62.25 7.078125 129.921875 7.078125 C 197.59375 7.078125 252.652344 62.128906 252.652344 129.800781 C 252.652344 197.472656 197.59375 252.527344 129.921875 252.527344 Z M 129.921875 1.074219 C 58.945312 1.074219 1.195312 58.824219 1.195312 129.800781 C 1.195312 200.78125 58.945312 258.53125 129.921875 258.53125 C 200.90625 258.53125 258.648438 200.78125 258.648438 129.800781 C 258.648438 58.824219 200.90625 1.074219 129.921875 1.074219 " fill-opacity="1" fill-rule="nonzero"/></g><path fill="#a1d569" d="M 129.921875 5.363281 C 61.3125 5.363281 5.492188 61.1875 5.492188 129.800781 C 5.492188 198.414062 61.3125 254.238281 129.921875 254.238281 C 198.539062 254.238281 254.363281 198.414062 254.363281 129.800781 C 254.363281 61.1875 198.539062 5.363281 129.921875 5.363281 Z M 129.921875 256.820312 C 59.890625 256.820312 2.90625 199.839844 2.90625 129.800781 C 2.90625 59.761719 59.890625 2.785156 129.921875 2.785156 C 199.960938 2.785156 256.941406 59.761719 256.941406 129.800781 C 256.941406 199.839844 199.960938 256.820312 129.921875 256.820312 " fill-opacity="1" fill-rule="nonzero"/></g></g></g><g mask="url(#dd55d7d694)"><g transform="matrix(1, 0, 0, 1, 298, 136)"><g clip-path="url(#abfa72f984)"><path fill="#a1d569" d="M 45.273438 135.757812 L 60.644531 144.089844 L 60.320312 146.613281 L 45.273438 138.839844 Z M 45.273438 135.757812 " fill-opacity="1" fill-rule="nonzero"/><path fill="#a1d569" d="M 46.746094 143.257812 L 57.789062 150.214844 L 57.789062 152.878906 L 46.746094 146.613281 Z M 46.746094 143.257812 " fill-opacity="1" fill-rule="nonzero"/><g clip-path="url(#9a2aa870c7)"><path fill="#a1d569" d="M 44.261719 131.066406 L 66.496094 141.6875 C 70.09375 165.683594 76.710938 186.964844 86.644531 205.25 C 92.863281 206.980469 99.1875 207.933594 105.605469 208.011719 C 96.402344 170 94.324219 131.105469 94.746094 92.132812 L 91.246094 93.882812 L 92.535156 47.953125 L 75.046875 58.445312 L 74.128906 102.441406 L 63.449219 107.871094 C 63.71875 115.210938 64.207031 122.347656 64.929688 129.277344 L 37.402344 116.0625 C 23.351562 120.792969 10.292969 121.121094 0.863281 117.90625 C 4.71875 138.054688 10.199219 153.890625 16.996094 166.207031 C 20.488281 172.53125 25.417969 177.953125 31.339844 182.09375 C 42.277344 189.738281 53.910156 196.050781 66.582031 200.371094 C 50.402344 175.746094 40.601562 148.6875 37.679688 119.007812 L 65.199219 132.078125 L 65.199219 131.789062 C 65.484375 134.3125 65.796875 136.808594 66.144531 139.277344 L 44.261719 127.984375 Z M 44.261719 131.066406 " fill-opacity="1" fill-rule="nonzero"/></g><g clip-path="url(#b3e33cad75)"><path fill="#a1d569" d="M 100.910156 109.800781 L 103.582031 111.550781 C 104.652344 142.910156 106.945312 175.199219 110.390625 208.375 L 109.195312 208.375 C 105.246094 179.523438 102.695312 145.960938 100.910156 109.800781 Z M 100.910156 109.800781 " fill-opacity="1" fill-rule="nonzero"/></g><g clip-path="url(#949dea08ff)"><path fill="#a1d569" d="M 109.285156 113.761719 L 112.417969 115.96875 C 113.019531 150.246094 113.890625 182.082031 115.363281 208.46875 L 114.257812 208.375 C 112.535156 181.914062 110.894531 149.074219 109.285156 113.757812 Z M 109.285156 113.761719 " fill-opacity="1" fill-rule="nonzero"/></g><g clip-path="url(#37513ec581)"><path fill="#a1d569" d="M 116.71875 118.179688 L 120.171875 119.902344 L 119.824219 208.746094 L 118.652344 208.746094 C 118.609375 175.652344 118.066406 144.976562 116.71875 118.179688 Z M 116.71875 118.179688 " fill-opacity="1" fill-rule="nonzero"/></g><g clip-path="url(#dc8f15938a)"><path fill="#a1d569" d="M 123.617188 121.695312 L 126.445312 123.902344 L 123.476562 208.808594 L 122.027344 208.808594 C 123.605469 182.351562 123.96875 152.90625 123.617188 121.695312 Z M 123.617188 121.695312 " fill-opacity="1" fill-rule="nonzero"/></g><g clip-path="url(#913f25e434)"><path fill="#a1d569" d="M 155.59375 116.632812 L 156.410156 96.15625 L 137.152344 78.488281 L 128.382812 83.179688 L 127.761719 34.996094 L 122.515625 29.335938 L 122.101562 15.738281 L 112.09375 0.828125 L 104.222656 6.488281 L 103.117188 21.609375 L 99.113281 24.507812 L 97.320312 50.117188 L 105.191406 56.398438 L 105.191406 97.609375 L 111.539062 101.476562 L 112.851562 14.082031 L 111.886719 15.324219 L 110.78125 15.257812 L 111.332031 3.730469 L 121.136719 18.914062 L 120.996094 31.753906 L 125.277344 35.964844 L 125.761719 108.308594 L 137.011719 114.109375 L 137.425781 83.042969 L 153.578125 97.679688 L 153.167969 117.417969 C 146.34375 119.605469 139.0625 121.757812 131.46875 123.886719 C 131.742188 153.101562 129.988281 181.339844 125.945312 208.472656 C 135.226562 208.417969 144.230469 207.566406 152.730469 205.25 C 167.644531 175.382812 174.285156 143.070312 175.832031 109.253906 C 169.785156 111.765625 162.976562 114.222656 155.59375 116.636719 Z M 155.59375 116.632812 " fill-opacity="1" fill-rule="nonzero"/></g><g clip-path="url(#10269b7d64)"><path fill="#a1d569" d="M 180.851562 123.148438 L 183.542969 124.667969 C 180.457031 157.59375 171.0625 182.886719 158.484375 204.328125 L 156.898438 204.050781 C 170.398438 179.058594 178.410156 152.101562 180.851562 123.148438 Z M 180.851562 123.148438 " fill-opacity="1" fill-rule="nonzero"/></g><g clip-path="url(#6db8117e4c)"><path fill="#a1d569" d="M 188.625 127.242188 L 190.972656 128.761719 C 187.988281 155.4375 179.054688 180.0625 164.554688 202.761719 L 163.3125 202.027344 C 183.570312 168.328125 185.648438 148.121094 188.625 127.246094 Z M 188.625 127.242188 " fill-opacity="1" fill-rule="nonzero"/></g><g clip-path="url(#54a3977afb)"><path fill="#a1d569" d="M 195.710938 130.6875 L 198.054688 132.023438 C 194.089844 157.421875 184.96875 180.328125 170.949219 200.871094 L 169.203125 200.457031 C 182.554688 180.324219 192.585938 157.898438 195.710938 130.6875 Z M 195.710938 130.6875 " fill-opacity="1" fill-rule="nonzero"/></g><g clip-path="url(#fc16ceb8bc)"><path fill="#a1d569" d="M 201.6875 133.496094 L 203.945312 134.417969 C 199.675781 158.027344 190.484375 179.644531 176.238281 199.210938 L 174.445312 198.796875 C 187.515625 182.140625 198.222656 156.730469 201.6875 133.496094 Z M 201.6875 133.496094 " fill-opacity="1" fill-rule="nonzero"/></g><g clip-path="url(#0a580c4071)"><path fill="#a1d569" d="M 206.617188 135.304688 L 208.363281 136.363281 C 203.855469 157.394531 194.511719 179.484375 181.027344 197.199219 L 180.0625 197.199219 C 192.695312 180.265625 201.542969 159.632812 206.617188 135.304688 Z M 206.617188 135.304688 " fill-opacity="1" fill-rule="nonzero"/></g><g clip-path="url(#583fa830d0)"><path fill="#a1d569" d="M 211.21875 136.355469 L 212.875 137.507812 C 207.832031 159.445312 198.726562 178.277344 186.414062 194.664062 L 185.078125 194.570312 C 196.976562 179.207031 205.617188 159.710938 211.21875 136.355469 Z M 211.21875 136.355469 " fill-opacity="1" fill-rule="nonzero"/></g><g clip-path="url(#ef9b960dbb)"><path fill="#a1d569" d="M 190.78125 191.902344 L 193.40625 191.210938 C 206.128906 175.730469 214.519531 153.644531 220.605469 128.050781 L 210.941406 125.496094 C 214.984375 104.375 215.160156 82.160156 211.5625 58.882812 C 220.226562 71.742188 228.859375 83.324219 237.449219 92.914062 C 237.632812 125.65625 227.613281 153.78125 211.769531 179.269531 L 215.980469 176.09375 C 231.734375 150.496094 241.066406 122.824219 240.207031 91.878906 C 231.925781 82.789062 222.101562 69.972656 211.699219 55.773438 C 202.65625 56.019531 193.707031 57.832031 184.847656 61.160156 C 186.769531 79.890625 186.933594 98.046875 185.328125 115.625 C 196.394531 122.566406 207.097656 127.820312 217.222656 130.328125 C 212.796875 153.40625 203.382812 173.582031 190.78125 191.902344 Z M 190.78125 191.902344 " fill-opacity="1" fill-rule="nonzero"/></g><path fill="#a1d569" d="M 218.71875 75.792969 L 234.1875 94.570312 L 234.1875 96.6875 L 218.71875 78.96875 Z M 218.71875 75.792969 " fill-opacity="1" fill-rule="nonzero"/><path fill="#a1d569" d="M 219.277344 86.976562 L 231.925781 100.875 L 231.925781 102.992188 L 219.277344 89.738281 Z M 219.277344 86.976562 " fill-opacity="1" fill-rule="nonzero"/><path fill="#a1d569" d="M 219.277344 98.019531 L 226.453125 105.199219 L 226.453125 106.902344 L 219.277344 101.289062 Z M 219.277344 98.019531 " fill-opacity="1" fill-rule="nonzero"/><path fill="#a1d569" d="M 218.71875 106.304688 L 220.835938 109.25 L 220.835938 111.273438 L 218.71875 109.160156 Z M 218.71875 106.304688 " fill-opacity="1" fill-rule="nonzero"/></g></g></g><g mask="url(#9e8aee0627)"><g transform="matrix(1, 0, 0, 1, 354, 232)"><g clip-path="url(#e1fc9979e1)"><g clip-path="url(#aa0ed1d50b)"><g clip-path="url(#6e16306b11)"><g clip-path="url(#f4c3c62b1b)"><path fill="#a1d569" d="M 16.792969 5.101562 C 20.785156 4.296875 24.773438 3.441406 28.867188 3.5 C 39.984375 3.523438 51.089844 4.121094 62.214844 4.429688 C 63.5 4.453125 64.863281 4.550781 65.984375 5.285156 C 67.207031 6.066406 67.792969 7.496094 68.089844 8.878906 C 69.558594 15.554688 71.421875 22.144531 73.230469 28.734375 C 73.546875 29.828125 74.378906 30.621094 75.003906 31.550781 C 75.339844 31.382812 75.675781 31.21875 76.015625 31.078125 C 75.996094 29.269531 75.980469 27.460938 75.859375 25.65625 C 75.734375 21.488281 75.710938 17.320312 75.507812 13.15625 C 75.488281 11.269531 75.492188 9.328125 76.238281 7.582031 C 76.886719 6.125 78.113281 4.835938 79.675781 4.457031 C 80.484375 4.253906 81.375 4.179688 82.191406 4.34375 C 83.113281 4.53125 83.871094 5.535156 83.578125 6.488281 C 83.144531 7.992188 81.425781 8.558594 80.886719 10.011719 C 80.460938 10.886719 80.457031 11.882812 80.507812 12.828125 C 80.523438 18.960938 80.828125 25.089844 80.945312 31.195312 C 91.867188 32.769531 103.027344 33.605469 113.550781 37.152344 C 115.246094 37.898438 116.671875 39.359375 117.105469 41.183594 C 117.996094 44.363281 118.335938 47.65625 118.886719 50.921875 C 115.0625 49.992188 111.066406 49.535156 107.175781 50.207031 C 103.390625 50.792969 99.8125 52.453125 96.691406 54.679688 C 90.265625 50.164062 82.972656 46.695312 75.15625 45.519531 C 74.953125 45.839844 74.777344 46.132812 74.574219 46.453125 C 75.457031 47.164062 76.292969 48.0625 77.425781 48.296875 C 83.390625 49.9375 89.242188 52.339844 94.234375 56.074219 C 92.371094 59.34375 90.003906 62.335938 88.753906 65.933594 C 87.75 68.921875 87.355469 72.050781 86.71875 75.132812 C 84.96875 75.304688 83.234375 75.242188 81.480469 75.3125 C 77.054688 75.496094 72.652344 75.550781 68.222656 75.679688 C 65.316406 75.855469 62.433594 75.847656 59.523438 75.941406 C 59.535156 73.1875 59.890625 70.425781 59.851562 67.648438 C 59.664062 61.046875 57.773438 54.355469 53.765625 49.046875 C 50.21875 44.28125 45.152344 40.8125 39.671875 38.609375 C 34.136719 36.332031 27.957031 35.5625 22.089844 36.828125 C 18.097656 37.660156 14.335938 39.324219 10.898438 41.476562 C 10.097656 41.996094 9.273438 42.484375 8.605469 43.15625 C 8.246094 43.480469 7.839844 44.015625 7.285156 43.765625 C 6.464844 43.496094 5.566406 43.152344 5.078125 42.457031 C 5.007812 39.652344 6.253906 36.84375 8.410156 35.035156 C 9.875 33.765625 11.691406 32.988281 13.570312 32.550781 C 14.449219 26.605469 15.277344 20.632812 16.128906 14.660156 C 16.308594 13.34375 16.539062 12.027344 16.664062 10.6875 C 15.953125 10.546875 15.339844 10.117188 14.804688 9.65625 C 14.242188 9.148438 13.445312 8.773438 13.214844 7.992188 C 13.195312 7.125 13.859375 6.402344 14.503906 5.863281 C 15.144531 5.296875 16.007812 5.25 16.792969 5.101562 Z M 44.644531 10.933594 C 44.445312 11.386719 44.222656 11.863281 44.285156 12.359375 C 44.484375 19.484375 44.574219 26.617188 44.929688 33.765625 C 45.144531 35.042969 46.265625 35.910156 47.304688 36.539062 C 52.597656 39.714844 57.214844 44.167969 60.074219 49.683594 C 60.542969 50.667969 61.382812 51.722656 62.585938 51.722656 C 64.84375 51.796875 67.125 51.691406 69.375 51.558594 C 70.226562 44.378906 69.65625 37.078125 68.253906 30.007812 C 66.941406 23.40625 65.058594 16.921875 63.09375 10.464844 C 56.933594 10.585938 50.777344 10.839844 44.644531 10.933594 Z M 21.667969 11.617188 C 20.632812 18.773438 19.652344 25.929688 18.644531 33.085938 C 21.472656 33.015625 24.304688 33 27.105469 32.828125 C 31.269531 32.703125 35.414062 32.65625 39.578125 32.503906 C 39.554688 29.382812 39.480469 26.238281 39.328125 23.125 C 39.207031 19.140625 39.1875 15.183594 39.015625 11.199219 C 38.226562 11.140625 37.441406 11.1875 36.628906 11.207031 C 31.625 11.300781 26.644531 11.496094 21.667969 11.617188 Z M 103.050781 39.972656 C 103.808594 42 104.695312 43.972656 105.65625 45.914062 C 106.128906 45.800781 106.785156 45.863281 107.117188 45.515625 C 106.402344 43.039062 105.558594 40.621094 104.789062 38.175781 C 104.148438 38.691406 103.613281 39.332031 103.050781 39.972656 Z M 97.457031 40.660156 C 97.460938 40.921875 97.597656 41.152344 97.710938 41.414062 C 98.511719 43.046875 99.441406 44.648438 100.371094 46.226562 C 100.679688 46.085938 100.992188 45.949219 101.304688 45.8125 C 100.730469 43.78125 100.132812 41.773438 99.375 39.800781 C 98.671875 39.894531 97.914062 40.097656 97.457031 40.660156 Z M 97.457031 40.660156 " fill-opacity="1" fill-rule="nonzero"/></g></g></g><g clip-path="url(#139f2775a0)"><g clip-path="url(#25cc89ec9d)"><g clip-path="url(#17c6edc20a)"><path fill="#a1d569" d="M 25.3125 42.257812 C 30.621094 41.683594 36.101562 42.707031 40.75 45.324219 C 45.691406 48.035156 49.730469 52.398438 52.003906 57.558594 C 54.496094 63.085938 54.9375 69.523438 53.269531 75.332031 C 51.890625 80.214844 49.011719 84.691406 45.15625 87.980469 C 40.6875 91.835938 34.84375 94.101562 28.945312 94.242188 C 24.28125 94.40625 19.5625 93.261719 15.496094 91 C 10.980469 88.484375 7.242188 84.617188 4.902344 80.003906 C 2.429688 75.242188 1.585938 69.675781 2.351562 64.363281 C 3.253906 58.335938 6.316406 52.652344 10.886719 48.636719 C 14.894531 45.078125 20.003906 42.804688 25.3125 42.257812 Z M 25.628906 54.390625 C 21.53125 55.144531 17.847656 57.828125 15.890625 61.492188 C 14.257812 64.46875 13.792969 68.097656 14.582031 71.410156 C 15.3125 74.566406 17.1875 77.402344 19.777344 79.335938 C 22.636719 81.519531 26.355469 82.507812 29.910156 82.054688 C 32.578125 81.726562 35.148438 80.589844 37.203125 78.863281 C 39.929688 76.597656 41.734375 73.25 42.121094 69.726562 C 42.492188 66.570312 41.734375 63.285156 40.015625 60.625 C 38.519531 58.25 36.269531 56.363281 33.671875 55.246094 C 31.132812 54.207031 28.292969 53.90625 25.628906 54.390625 Z M 25.628906 54.390625 " fill-opacity="1" fill-rule="nonzero"/></g></g></g><g clip-path="url(#9acca18ee2)"><g clip-path="url(#99bd5ecc80)"><g clip-path="url(#4e98e8329d)"><path fill="#a1d569" d="M 101.664062 55.320312 C 105.566406 53.023438 110.238281 52.097656 114.734375 52.621094 C 121.070312 53.308594 126.953125 57.097656 130.230469 62.550781 C 131.867188 65.160156 132.777344 68.128906 133.242188 71.160156 L 133.320312 74.328125 C 133.125 80.417969 130.121094 86.335938 125.332031 90.09375 C 122.246094 92.582031 118.453125 94.035156 114.558594 94.574219 L 111.390625 94.652344 C 108.867188 94.503906 106.339844 93.984375 104.007812 92.96875 C 98.84375 90.808594 94.648438 86.480469 92.609375 81.285156 C 90.992188 77.152344 90.722656 72.492188 91.851562 68.21875 C 93.269531 62.808594 96.878906 58.082031 101.664062 55.320312 Z M 111.023438 62.933594 C 108.144531 63.292969 105.457031 64.902344 103.730469 67.253906 C 102.257812 69.226562 101.453125 71.738281 101.644531 74.222656 C 101.859375 77.707031 103.957031 80.960938 106.960938 82.722656 C 109.195312 84.058594 111.933594 84.570312 114.464844 83.984375 C 116.8125 83.484375 118.980469 82.144531 120.507812 80.273438 C 122.21875 78.214844 123.148438 75.464844 122.925781 72.769531 C 122.714844 69.496094 120.832031 66.421875 118.089844 64.652344 C 116.011719 63.285156 113.480469 62.640625 111.023438 62.933594 Z M 111.023438 62.933594 " fill-opacity="1" fill-rule="nonzero"/></g></g></g><g clip-path="url(#b0e6fdb7d9)"><g clip-path="url(#587b4ff42b)"><g clip-path="url(#c5c6cf11d6)"><path fill="#a1d569" d="M 26.46875 57.59375 C 28.972656 57.167969 31.609375 57.707031 33.765625 59.046875 C 35.867188 60.359375 37.542969 62.390625 38.332031 64.730469 C 39.175781 67.175781 39.085938 69.929688 38.042969 72.316406 C 36.898438 74.964844 34.671875 77.140625 31.96875 78.175781 C 29.476562 79.152344 26.589844 79.117188 24.152344 78.050781 C 20.949219 76.710938 18.464844 73.808594 17.730469 70.417969 C 17.171875 67.886719 17.601562 65.148438 18.914062 62.914062 C 20.472656 60.152344 23.308594 58.117188 26.46875 57.59375 Z M 26.46875 57.59375 " fill-opacity="1" fill-rule="nonzero"/></g></g></g><g clip-path="url(#940a965e29)"><g clip-path="url(#f38e77e4cd)"><g clip-path="url(#d04a416939)"><path fill="#a1d569" d="M 110.878906 65.769531 C 112.65625 65.4375 114.550781 65.761719 116.117188 66.667969 C 118.164062 67.824219 119.65625 69.910156 120.027344 72.234375 C 120.335938 74.0625 119.960938 75.988281 119.003906 77.558594 C 117.515625 80.03125 114.644531 81.648438 111.726562 81.402344 C 108.574219 81.191406 105.691406 78.925781 104.726562 75.90625 C 104.019531 73.800781 104.328125 71.40625 105.488281 69.515625 C 106.675781 67.601562 108.660156 66.164062 110.878906 65.769531 Z M 110.878906 65.769531 " fill-opacity="1" fill-rule="nonzero"/></g></g></g></g></g></g></svg>